<?xml version="1.0" encoding="UTF-8" standalone="no"?>
<svg xmlns:dc="http://purl.org/dc/elements/1.1/" xmlns:cc="http://creativecommons.org/ns#" xmlns:rdf="http://www.w3.org/1999/02/22-rdf-syntax-ns#" xmlns:svg="http://www.w3.org/2000/svg" xmlns="http://www.w3.org/2000/svg" viewBox="0 0 250 250" height="250" width="250" xml:space="preserve" id="svg182" version="1.1">
  <rect width="250" height="250" rx="30" fill="#ffffff" />
  <g transform="matrix(1.3333333,0,0,-1.3333333,2,137.184)" id="g190">
    <g clip-path="url(#clipPath268)" transform="scale(0.1) translate(60, -400)" id="g192">
      <path id="path194" style="fill:#cc193a;fill-opacity:1;fill-rule:nonzero;stroke:none" d="M 0,5.41016 V 93.832 l 1138.9,0.5469 70.34,-63.0664 70.38,63.0664 445.73,-0.5469 -0.04,-88.42184 H 0"/>
      <path id="path196" style="fill:#2a3741;fill-opacity:1;fill-rule:nonzero;stroke:none" d="m 17.9297,394.398 v 110.02 H 327 c 39.801,0 72.172,32.336 72.172,72.129 0,39.801 -32.371,72.172 -72.172,72.172 H 183.48 c -100.4487,0 -182.15187,81.707 -182.15187,182.148 0,100.449 81.70317,182.193 182.15187,182.193 l 360.274,0.74 C 499.035,969.711 478.184,921.832 471.23,903.043 H 183.48 c -39.8,0 -72.132,-32.375 -72.132,-72.176 0,-39.793 32.332,-72.168 72.132,-72.168 L 327,758.738 c 100.449,0 182.191,-81.742 182.191,-182.191 C 509.191,476.098 427.449,394.398 327,394.398 H 17.9297"/>
      <path id="path198" style="fill:#2a3741;fill-opacity:1;fill-rule:nonzero;stroke:none" d="m 536.609,394.398 c 19.879,24.836 52.211,69.758 61.586,110.02 h 310.993 c 39.796,0 72.132,32.336 72.132,72.129 0,39.801 -32.336,72.172 -72.132,72.172 H 765.66 c -100.445,0 -182.183,81.707 -182.183,182.148 0,100.449 81.738,182.193 182.183,182.193 l 406.95,0.74 c -21.6,-21.905 -53.93,-60.495 -73.07,-110.757 H 765.66 c -39.793,0 -72.172,-32.375 -72.172,-72.176 0,-39.793 32.379,-72.168 72.172,-72.168 l 143.528,0.039 c 100.442,0 182.152,-81.742 182.152,-182.191 0,-100.449 -81.71,-182.149 -182.152,-182.149 H 536.609"/>
      <path id="path200" style="fill:#2a3741;fill-opacity:1;fill-rule:nonzero;stroke:none" d="m 1426.66,906.285 c -89.47,0 -162.27,-72.801 -162.27,-162.312 v -80.528 c 0,-89.515 72.8,-162.308 162.27,-162.308 h 27.49 c 89.48,0 162.27,72.793 162.27,162.308 v 80.528 c 0,89.511 -72.79,162.312 -162.27,162.312 z M 1156.79,141.48 v 602.493 c 0,148.84 121.07,269.907 269.87,269.907 h 27.49 c 148.8,0 269.87,-121.067 269.87,-269.907 v -80.528 c 0,-148.8 -121.07,-269.867 -269.87,-269.867 h -27.49 c -51.24,0 -101.31,14.727 -144.86,42.57 l -17.41,11.133 V 141.48 l -53.82,-50.6167 -53.78,50.6167"/>
    </g>
  </g>
</svg>
